<svg xmlns="http://www.w3.org/2000/svg" xmlns:xlink="http://www.w3.org/1999/xlink"><symbol id="adobe-brands" viewBox="0 0 512 512"><path fill="currentColor" d="M315.5 64h170.9v384L315.5 64zm-119 0H25.6v384L196.5 64zM256 206.1L363.5 448h-73l-30.7-76.8h-78.7L256 206.1z"/></symbol><symbol id="amazon-brands" viewBox="0 0 448 512"><path fill="currentColor" d="M257.2 162.7c-48.7 1.8-169.5 15.5-169.5 117.5 0 109.5 138.3 114 183.5 43.2 6.5 10.2 35.4 37.5 45.3 46.8l56.8-56S341 288.9 341 261.4V114.3C341 89 316.5 32 228.7 32 140.7 32 94 87 94 136.3l73.5 6.8c16.3-49.5 54.2-49.5 54.2-49.5 40.7-.1 35.5 29.8 35.5 69.1zm0 86.8c0 80-84.2 68-84.2 17.2 0-47.2 50.5-56.7 84.2-57.8v40.6zm136 163.5c-7.7 10-70 67-174.5 67S34.2 408.5 9.7 379c-6.8-7.7 1-11.3 5.5-8.3C88.5 415.2 203 488.5 387.7 401c7.5-3.7 13.3 2 5.5 12zm39.8 2.2c-6.5 15.8-16 26.8-21.2 31-5.5 4.5-9.5 2.7-6.5-3.8s19.3-46.5 12.7-55c-6.5-8.3-37-4.3-48-3.2-10.8 1-13 2-14-.3-2.3-5.7 21.7-15.5 37.5-17.5 15.7-1.8 41-.8 46 5.7 3.7 5.1 0 27.1-6.5 43.1z"/></symbol><symbol id="buy-n-large-brands" viewBox="0 0 576 512"><path fill="currentColor" d="M288 32C133.27 32 7.79 132.32 7.79 256S133.27 480 288 480s280.21-100.32 280.21-224S442.73 32 288 32zm-85.39 357.19L64.1 390.55l77.25-290.74h133.44c63.15 0 84.93 28.65 78 72.84a60.24 60.24 0 0 1-1.5 6.85 77.39 77.39 0 0 0-17.21-1.93c-42.35 0-76.69 33.88-76.69 75.65 0 37.14 27.14 68 62.93 74.45-18.24 37.16-56.16 60.92-117.71 61.52zM358 207.11h32l-22.16 90.31h-35.41l-11.19-35.63-7.83 35.63h-37.83l26.63-90.31h31.34l15 36.75zm145.86 182.08H306.79L322.63 328a78.8 78.8 0 0 0 11.47.83c42.34 0 76.69-33.87 76.69-75.65 0-32.65-21-60.46-50.38-71.06l21.33-82.35h92.5l-53.05 205.36h103.87zM211.7 269.39H187l-13.8 56.47h24.7c16.14 0 32.11-3.18 37.94-26.65 5.56-22.31-7.99-29.82-24.14-29.82zM233 170h-21.34L200 217.71h21.37c18 0 35.38-14.64 39.21-30.14C265.23 168.71 251.07 170 233 170z"/></symbol></svg>